<svg width="21" height="25" viewBox="0 0 21 25" fill="none" xmlns="http://www.w3.org/2000/svg">
<path d="M16.7497 13.0897C16.7218 10.0353 19.2893 8.54935 19.4067 8.48017C17.9526 6.39241 15.6988 6.10715 14.9068 6.08441C13.0139 5.88824 11.1777 7.19984 10.2135 7.19984C9.22995 7.19984 7.74505 6.10336 6.14467 6.13558C4.08525 6.16686 2.15864 7.34104 1.10198 9.1644C-1.07869 12.8822 0.547671 18.3456 2.63692 21.3507C3.68203 22.8225 4.90324 24.4658 6.5017 24.408C8.06551 24.3445 8.64965 23.4262 10.5368 23.4262C12.4066 23.4262 12.9552 24.408 14.5854 24.371C16.2637 24.3445 17.3204 22.8926 18.3289 21.4076C19.5367 19.7207 20.0217 18.0594 20.0409 17.9741C20.0015 17.9609 16.7815 16.7507 16.7497 13.0897Z" fill="white"/>
<path d="M13.6702 4.10753C14.5113 3.0717 15.0868 1.66249 14.927 0.232422C13.7097 0.285493 12.1872 1.06165 11.3105 2.07473C10.5349 2.96746 9.842 4.43069 10.021 5.80673C11.3885 5.90719 12.7925 5.12724 13.6702 4.10753Z" fill="white"/>
</svg>
