<svg width="25" height="25" viewBox="0 0 25 25" fill="none" xmlns="http://www.w3.org/2000/svg">
<path d="M21.7087 12.6024C21.7087 17.6317 17.6317 21.7087 12.6024 21.7087C7.57312 21.7087 3.49609 17.6317 3.49609 12.6024C3.49609 7.57312 7.57312 3.49609 12.6024 3.49609M17.6614 12.6024C17.6614 15.3964 15.3964 17.6614 12.6024 17.6614C9.80835 17.6614 7.54334 15.3964 7.54334 12.6024C7.54334 9.80835 9.80835 7.54334 12.6024 7.54334M15.3928 9.92274L19.3986 10.3434L21.57 7.30346L18.9643 6.4349L18.0957 3.8292L15.0557 6.00061L15.3928 9.92274ZM15.3928 9.92274L12.6024 12.6023" stroke="white" stroke-width="1.51772" stroke-linecap="round" stroke-linejoin="round"/>
</svg>
