<svg id="Group_2" data-name="Group 2" xmlns="http://www.w3.org/2000/svg" xmlns:xlink="http://www.w3.org/1999/xlink" width="19.355" height="22.889" viewBox="0 0 19.355 22.889">
  <defs>
    <clipPath id="clip-path">
      <rect id="Rectangle_1" data-name="Rectangle 1" width="19.355" height="22.889" fill="none"/>
    </clipPath>
  </defs>
  <g id="Group_1" data-name="Group 1" clip-path="url(#clip-path)">
    <path id="Path_1" data-name="Path 1" d="M4.389,5.58a4.9,4.9,0,0,1,1.7-4.223A5.266,5.266,0,0,1,9.7,0a5.129,5.129,0,0,1,3.824,1.657,5.246,5.246,0,0,1,1.453,3.9,2.11,2.11,0,0,0,.211.023c.4,0,.8,0,1.2,0a1.955,1.955,0,0,1,2.018,1.883q.3,4.187.592,8.374.169,2.374.347,4.747a1.974,1.974,0,0,1-1.46,2.233,2.564,2.564,0,0,1-.621.069q-7.586.005-15.172,0a1.958,1.958,0,0,1-2.088-2.22c.156-2.314.333-4.626.5-6.939.147-2.061.3-4.121.434-6.183A1.978,1.978,0,0,1,3.012,5.581c.444,0,.889,0,1.378,0m.038,1.676c-.528,0-1.023,0-1.518,0-.206,0-.28.144-.293.332Q2.511,9.117,2.4,10.643q-.171,2.387-.345,4.773-.192,2.674-.381,5.348c-.025.355.063.45.4.45q7.6,0,15.2,0c.332,0,.425-.095.4-.424-.072-1.061-.15-2.122-.226-3.182q-.225-3.13-.45-6.26c-.09-1.252-.172-2.5-.275-3.756-.01-.116-.146-.31-.232-.315-.5-.03-1-.015-1.521-.015v.318q0,1.9,0,3.793a.839.839,0,1,1-1.671-.009c-.006-1.264,0-2.529,0-3.793v-.3H6.054v.322q0,1.87,0,3.741a.866.866,0,0,1-.482.859.83.83,0,0,1-1.191-.816c.013-1.273.03-2.546.045-3.819,0-.093,0-.187,0-.3M13.3,5.57a3.539,3.539,0,0,0-1.844-3.419,3.439,3.439,0,0,0-3.932.241A3.505,3.505,0,0,0,6.06,5.57Z" transform="translate(0 0)"/>
  </g>
</svg>
