<svg width="22" height="22" viewBox="0 0 22 22" fill="none" xmlns="http://www.w3.org/2000/svg">
<path d="M6.1585 1.90833L9.76635 5.03464C9.86571 5.12069 9.9454 5.22711 10 5.34668C10.0546 5.46625 10.0829 5.59616 10.0829 5.72761V15.2569H7.02747C6.78436 15.2569 6.55122 15.3534 6.37931 15.5253C6.20741 15.6972 6.11084 15.9304 6.11084 16.1735V20.1455H2.13879C2.05776 20.1455 1.98004 20.1133 1.92274 20.056C1.86544 19.9987 1.83325 19.921 1.83325 19.84V5.72761C1.83324 5.59616 1.8615 5.46625 1.91612 5.34668C1.97074 5.22711 2.05043 5.12069 2.14979 5.03464L5.75641 1.90833C5.81201 1.86001 5.88319 1.8334 5.95685 1.8334C6.03051 1.8334 6.10291 1.86001 6.1585 1.90833ZM10.0817 17.0901V20.1455H7.94409V17.0913L10.0817 17.0901ZM11.9149 17.0901H14.0537V20.1455H11.9149V17.0901ZM15.8882 20.1467V16.1747C15.8882 15.9316 15.7916 15.6985 15.6197 15.5266C15.4478 15.3546 15.2147 15.2581 14.9716 15.2581H11.9161V5.72761C11.9161 5.59616 11.9444 5.46625 11.999 5.34668C12.0536 5.22711 12.1333 5.12069 12.2327 5.03464L15.8405 1.90833C15.8961 1.86001 15.9673 1.8334 16.041 1.8334C16.1146 1.8334 16.1858 1.86001 16.2414 1.90833L19.8492 5.03464C19.9486 5.12069 20.0283 5.22711 20.0829 5.34668C20.1375 5.46625 20.1658 5.59616 20.1658 5.72761V19.84C20.1658 19.921 20.1336 19.9987 20.0763 20.056C20.019 20.1133 19.9413 20.1455 19.8602 20.1455L15.8882 20.1467ZM2.13879 21.98H19.8602C20.4275 21.98 20.9715 21.7547 21.3726 21.3536C21.7737 20.9525 21.999 20.4084 21.999 19.8412V5.72761C21.9989 5.33347 21.914 4.94396 21.7502 4.58549C21.5863 4.22702 21.3473 3.90795 21.0494 3.64992L17.4416 0.522395C17.0527 0.185468 16.5555 0 16.041 0C15.5265 0 15.0292 0.185468 14.6404 0.522395L11.0325 3.6487L10.9995 3.67803L10.9665 3.64748L7.35867 0.522395C6.96984 0.185468 6.47257 0 5.95807 0C5.44357 0 4.9463 0.185468 4.55747 0.522395L0.949625 3.6487C0.651686 3.90673 0.412698 4.22579 0.248855 4.58427C0.0850115 4.94274 0.000142755 5.33225 0 5.72639V19.8412C0 21.023 0.95818 21.98 2.13879 21.98ZM7.18513 7.31398C7.18513 7.63812 7.05636 7.94898 6.82716 8.17819C6.59796 8.40739 6.2871 8.53615 5.96296 8.53615C5.63882 8.53615 5.32796 8.40739 5.09876 8.17819C4.86955 7.94898 4.74079 7.63812 4.74079 7.31398C4.74079 6.98984 4.86955 6.67898 5.09876 6.44978C5.32796 6.22058 5.63882 6.09181 5.96296 6.09181C6.2871 6.09181 6.59796 6.22058 6.82716 6.44978C7.05636 6.67898 7.18513 6.98984 7.18513 7.31398ZM5.96296 13.4212C6.2871 13.4212 6.59796 13.2924 6.82716 13.0632C7.05636 12.834 7.18513 12.5231 7.18513 12.199C7.18513 11.8748 7.05636 11.564 6.82716 11.3348C6.59796 11.1056 6.2871 10.9768 5.96296 10.9768C5.63882 10.9768 5.32796 11.1056 5.09876 11.3348C4.86955 11.564 4.74079 11.8748 4.74079 12.199C4.74079 12.5231 4.86955 12.834 5.09876 13.0632C5.32796 13.2924 5.63882 13.4212 5.96296 13.4212ZM16.0361 8.53615C15.7119 8.53615 15.4011 8.40739 15.1719 8.17819C14.9427 7.94898 14.8139 7.63812 14.8139 7.31398C14.8139 6.98984 14.9427 6.67898 15.1719 6.44978C15.4011 6.22058 15.7119 6.09181 16.0361 6.09181C16.3602 6.09181 16.6711 6.22058 16.9003 6.44978C17.1295 6.67898 17.2582 6.98984 17.2582 7.31398C17.2582 7.63812 17.1295 7.94898 16.9003 8.17819C16.6711 8.40739 16.3602 8.53615 16.0361 8.53615ZM14.8139 12.199C14.8139 12.5231 14.9427 12.834 15.1719 13.0632C15.4011 13.2924 15.7119 13.4212 16.0361 13.4212C16.3602 13.4212 16.6711 13.2924 16.9003 13.0632C17.1295 12.834 17.2582 12.5231 17.2582 12.199C17.2582 11.8748 17.1295 11.564 16.9003 11.3348C16.6711 11.1056 16.3602 10.9768 16.0361 10.9768C15.7119 10.9768 15.4011 11.1056 15.1719 11.3348C14.9427 11.564 14.8139 11.8748 14.8139 12.199Z" fill="black"/>
</svg>
