<svg width="24" height="21" viewBox="0 0 24 21" fill="none" xmlns="http://www.w3.org/2000/svg">
<path d="M18.6667 14H16.3333V16.3333H18.6667M18.6667 9.33333H16.3333V11.6667H18.6667M21 18.6667H11.6667V16.3333H14V14H11.6667V11.6667H14V9.33333H11.6667V7H21M9.33333 4.66667H7V2.33333H9.33333M9.33333 9.33333H7V7H9.33333M9.33333 14H7V11.6667H9.33333M9.33333 18.6667H7V16.3333H9.33333M4.66667 4.66667H2.33333V2.33333H4.66667M4.66667 9.33333H2.33333V7H4.66667M4.66667 14H2.33333V11.6667H4.66667M4.66667 18.6667H2.33333V16.3333H4.66667M11.6667 4.66667V0H0V21H23.3333V4.66667H11.6667Z" fill="black"/>
</svg>
