<svg width="29" height="22" viewBox="0 0 29 22" fill="none" xmlns="http://www.w3.org/2000/svg">
<path d="M0 8.12793V16.2703C0 17.7087 0.571396 19.0882 1.58849 20.1053C2.60558 21.1224 3.98505 21.6938 5.42344 21.6938H23.5016C24.9399 21.6938 26.3194 21.1224 27.3365 20.1053C28.3536 19.0882 28.925 17.7087 28.925 16.2703V8.12793L15.2037 14.3034C14.9706 14.4082 14.718 14.4623 14.4625 14.4623C14.207 14.4623 13.9544 14.4082 13.7213 14.3034L0 8.12793ZM0.133778 4.22305L14.4625 10.6733L28.7912 4.22305C28.519 3.02366 27.8472 1.9524 26.886 1.18505C25.9249 0.417706 24.7315 -0.000166131 23.5016 4.95465e-08H5.42344C4.19354 -0.000166131 3.00011 0.417706 2.03895 1.18505C1.07779 1.9524 0.405995 3.02366 0.133778 4.22305Z" fill="black"/>
</svg>
