<svg width="512" height="512" viewBox="0 0 512 512" fill="none" xmlns="http://www.w3.org/2000/svg">
<path fill-rule="evenodd" clip-rule="evenodd" d="M257.942 44.0099C258.564 44.733 259.467 44.5349 260.244 44.7231C268.318 46.714 273.894 51.6269 276.372 59.7194C279.616 70.308 274.827 81.3522 264.908 86.1661C261.857 86.6415 261.566 88.6919 261.585 91.4059C261.682 111.404 261.634 131.403 261.634 151.411C261.634 152.144 261.614 152.887 261.643 153.62C261.653 154.016 261.517 154.492 261.935 154.749C262.411 155.056 262.693 154.591 262.965 154.343C263.509 153.848 263.994 153.313 264.509 152.788C273.923 143.19 283.337 133.592 292.761 123.984C293.266 123.469 293.772 122.934 294.306 122.429C296.123 120.725 298.25 119.774 300.747 119.814C301.884 119.824 303.02 119.814 304.157 119.814C318.302 119.814 332.448 119.834 346.593 119.844C347.322 119.844 348.041 119.834 348.769 119.834C349.848 119.824 350.8 119.447 351.567 118.685C354.433 115.792 357.261 112.88 360.136 109.998C360.816 109.324 360.525 108.68 360.214 108.007C358.533 104.411 357.902 100.628 358.154 96.6556C358.766 87.0378 366.101 78.7274 375.36 76.8355C386.27 74.6068 398.55 81.58 400.794 94.635C402.815 106.452 395.587 116.991 384.609 119.774C380.363 120.844 376.215 120.458 372.125 119.011C371.445 118.764 370.765 118.496 370.123 118.16C369.249 117.714 368.588 117.932 367.918 118.615C365.742 120.874 363.527 123.073 361.341 125.311C360.097 126.569 358.844 127.827 357.639 129.125C355.968 130.917 353.948 131.71 351.538 131.68C348.546 131.65 345.554 131.66 342.561 131.68C341.978 131.68 341.396 131.779 340.628 131.849C341.065 133.007 341.833 133.562 342.464 134.206C347.341 139.198 352.238 144.17 357.125 149.173C357.775 149.836 358.465 150.51 358.98 151.282C360.573 153.62 360.369 156.552 358.553 158.543C356.61 160.672 353.666 161.059 351.227 159.424C350.382 158.85 349.634 158.087 348.915 157.344C341.609 149.915 334.313 142.457 327.017 135.018C326.502 134.493 325.958 133.998 325.492 133.443C324.336 132.027 322.859 131.611 321.091 131.631C315.417 131.69 309.734 131.71 304.05 131.631C302.253 131.611 300.941 132.265 299.698 133.542C287.612 145.924 275.487 158.275 263.353 170.607C262.187 171.786 261.566 173.024 261.575 174.767C261.634 191.408 261.614 208.029 261.624 224.66C261.624 225.066 261.692 225.462 261.731 225.858C262.741 226.076 263.052 225.254 263.528 224.788C270.484 217.736 277.411 210.654 284.348 203.581C284.999 202.918 285.65 202.224 286.32 201.571C287.884 200.055 289.74 199.253 291.906 199.233C292.936 199.233 293.976 199.223 295.005 199.233C329.494 199.243 363.974 199.263 398.453 199.273C399.075 199.273 399.697 199.253 400.309 199.283C402.184 199.372 403.69 198.668 405.011 197.311C413.813 188.278 422.634 179.274 431.456 170.251C431.747 169.954 432.029 169.627 432.301 169.32C432.612 168.983 432.67 168.567 432.505 168.161C432.175 167.279 431.767 166.417 431.446 165.526C427.181 153.947 433.321 139.733 446.825 136.603C461.223 133.285 472.775 144.656 473.163 157.027C473.493 167.844 466.518 177.174 456.084 179.522C452.285 180.374 448.486 180.156 444.785 178.829C443.911 178.512 443.046 178.175 442.181 177.818C441.628 177.6 441.181 177.729 440.763 178.115C440.462 178.393 440.17 178.71 439.879 178.997C433.894 185.098 427.9 191.2 421.915 197.311C421.546 197.678 421.187 198.054 420.886 198.47C420.682 198.758 420.818 199.164 421.128 199.184C422.051 199.273 422.974 199.263 423.907 199.263C442.803 199.273 461.699 199.283 480.586 199.283C481.615 199.283 482.655 199.243 483.685 199.352C486.92 199.669 489.067 202.046 489.028 205.176C488.999 208.326 486.803 210.644 483.568 210.881C482.538 210.971 481.499 210.921 480.469 210.921C441.443 210.921 402.417 210.921 363.391 210.921C362.361 210.921 361.331 210.941 360.292 210.971C359.884 210.981 359.612 211.555 359.874 211.872C360.418 212.496 360.981 213.12 361.555 213.724C365.47 217.775 369.395 221.817 373.291 225.888C373.932 226.551 374.592 227.255 375.069 228.047C376.477 230.375 376.04 233.435 374.116 235.268C372.154 237.14 369.191 237.388 366.995 235.783C366.16 235.169 365.45 234.376 364.732 233.634C358.417 227.126 352.111 220.608 345.797 214.081C345.214 213.477 344.631 212.882 344.057 212.278C343.135 211.327 342.027 210.872 340.715 210.911C340.201 210.931 339.686 210.911 339.171 210.911C325.132 210.901 311.084 210.901 297.046 210.901C296.424 210.901 295.812 210.901 295.19 210.901C293.995 210.931 292.985 211.387 292.13 212.219C291.916 212.427 291.692 212.664 291.469 212.882C282.123 222.411 272.796 231.95 263.421 241.449C262.158 242.726 261.478 244.074 261.566 245.906C261.663 247.897 261.595 249.898 261.595 251.899C261.595 322.532 261.595 393.165 261.595 463.799C261.595 468.573 262.216 467.929 257.495 467.979C255.532 468.009 253.57 468.009 251.607 467.969C250.276 467.949 250.082 467.701 250.034 466.245C250.014 465.512 250.024 464.779 250.024 464.037C250.034 404.447 250.053 344.878 250.063 285.299C250.063 279.455 250.034 279.356 246.05 275.304C231.001 259.981 215.953 244.648 200.904 229.325C200.321 228.731 199.738 228.136 199.145 227.542C197.377 225.769 197.358 225.709 194.938 226.759C184.087 231.435 171.097 226.225 166.57 214.447C161.353 200.877 170.398 186.475 183.795 184.712C195.317 183.197 205.752 191.22 207.869 202.541C208.627 206.602 208.112 210.485 206.801 214.319C206.558 215.012 206.257 215.695 205.994 216.369C205.81 216.815 205.936 217.221 206.198 217.548C206.519 217.964 206.908 218.31 207.267 218.677C220.839 232.524 234.421 246.372 248.013 260.199C248.489 260.694 248.829 261.427 249.655 261.417C250.228 260.902 249.995 260.229 249.995 259.644C250.024 244.906 249.985 230.167 250.082 215.428C250.102 213.16 249.072 211.723 247.644 210.267C234.052 196.44 220.48 182.583 206.908 168.745C205.81 167.626 204.702 166.516 203.624 165.387C202.633 164.347 201.467 163.822 200.029 163.882C198.795 163.911 197.552 163.882 196.308 163.882C173.701 163.882 151.094 163.901 128.477 163.911C127.544 163.911 126.621 163.911 125.688 163.911C122.968 163.911 120.685 162.951 118.761 160.95C114.866 156.899 110.892 152.897 106.957 148.866C106.452 148.35 105.85 147.885 105.432 147.31C104.004 145.27 102.314 144.765 100.196 146.221C91.2285 149.252 83.1454 147.726 76.6556 140.615C70.4573 133.82 69.0874 125.697 72.6335 117.179C76.131 108.78 82.6596 104.322 91.6656 103.867C102.022 103.342 110.892 110.711 113.204 120.269C114.234 124.568 114.059 128.827 112.689 133.027C112.398 133.929 112.038 134.8 111.679 135.672C111.407 136.326 111.494 136.89 111.98 137.395C112.641 138.059 113.282 138.742 113.943 139.416C117.518 143.071 121.122 146.686 124.649 150.381C125.815 151.609 127.078 152.124 128.758 152.114C138.571 152.055 148.373 152.075 158.186 152.065C158.594 152.065 159.012 152.035 159.42 152.005C159.828 151.966 160.051 151.411 159.76 151.074C159.216 150.45 158.652 149.826 158.069 149.232C155.67 146.766 153.25 144.319 150.851 141.853C149.636 140.624 148.879 139.198 148.879 137.385C148.888 132.948 153.318 130.214 157.214 132.255C158.244 132.799 159.021 133.641 159.828 134.454C164.501 139.208 169.174 143.982 173.847 148.747C174.284 149.192 174.76 149.608 175.149 150.094C176.353 151.589 177.859 152.184 179.773 152.105C182.658 151.986 185.554 152.075 188.449 152.065C192.986 152.065 197.542 152.204 202.069 151.996C205.46 151.847 207.957 153.164 210.279 155.561C222.481 168.121 234.771 180.602 247.041 193.102C247.818 193.894 248.644 194.627 249.626 195.558C250.14 194.399 249.995 193.458 249.995 192.547C250.004 180.126 250.014 167.705 250.014 155.284C250.014 151.916 249.966 148.539 250.043 145.181C250.082 143.368 249.596 141.873 248.265 140.674C247.809 140.248 247.391 139.773 246.954 139.327C227.97 119.695 208.977 100.033 190.003 80.3914C189.139 79.5 188.322 78.5392 187.526 77.5784C186.205 75.9935 186.205 72.7249 187.419 71.0311C188.818 69.0897 190.722 68.2576 193.083 68.5548C194.045 68.6638 194.88 69.0798 195.589 69.684C196.299 70.2981 196.969 70.9617 197.62 71.6254C214.136 88.7216 230.642 105.828 247.197 122.904C247.925 123.657 248.324 124.935 249.655 124.955C250.179 123.974 249.927 122.914 249.927 121.894C249.966 111.583 249.975 101.262 249.995 90.9503C249.995 90.3263 249.966 89.6824 249.995 89.0584C250.053 87.9787 249.645 87.325 248.596 86.9189C245.487 85.7006 242.708 83.9375 240.347 81.481C229.185 69.7929 234.169 49.9926 249.47 45.2183C250.83 44.7924 252.365 44.9509 253.57 44C255.056 44.0099 256.494 44.0099 257.942 44.0099Z" fill="#00A0FA"/>
<path fill-rule="evenodd" clip-rule="evenodd" d="M140.798 332.962C139.788 332.239 138.952 332.477 138.165 332.447C125.885 332.031 113.595 332.17 101.315 332.14C86.9563 332.11 72.6069 332.15 58.2575 332.17C56.1882 332.17 54.1188 332.318 52.0592 332.209C49.6498 332.071 47.7651 332.536 47.2599 335.32C43.0532 343.828 36.3011 348.454 26.955 348.266C15.3453 348.038 7.88406 338.985 6.31991 329.872C4.15341 317.263 13.7812 303.98 28.3249 304.386C36.1165 304.594 42.0525 308.437 46.1329 315.212C46.5118 315.836 46.9684 316.47 47.1336 317.164C47.7456 319.779 49.3195 320.373 51.8552 320.353C72.8109 320.244 93.7667 320.303 114.732 320.274C115.83 320.274 116.957 320.482 118.162 320.036C117.899 318.946 117.083 318.421 116.452 317.788C109.486 310.745 102.501 303.722 95.5251 296.69C94.8645 296.036 94.1747 295.382 93.5918 294.649C91.7167 292.292 91.8527 289.003 93.7958 286.864C95.8943 284.556 99.7124 284.615 101.655 286.487C102.705 287.508 103.754 288.518 104.784 289.558C114.033 298.889 123.272 308.219 132.511 317.56C133.026 318.075 133.531 318.59 134.056 319.115C134.979 320.036 136.086 320.531 137.398 320.521C138.117 320.521 138.845 320.531 139.564 320.531C161.861 320.531 184.167 320.521 206.463 320.521C209.961 320.521 210.116 320.878 210.106 316.975C210.087 310.23 210.038 303.504 210.155 296.769C210.194 294.56 209.465 293.015 207.959 291.499C196.826 280.227 185.712 268.936 174.685 257.545C172.926 255.722 171.11 255.049 168.661 255.058C136.348 255.118 104.026 255.098 71.7131 255.098C71.0913 255.098 70.4695 255.078 69.8478 255.108C68.0893 255.177 66.632 254.474 65.3593 253.305C64.893 252.879 64.4752 252.414 64.0381 251.968C56.1493 243.925 48.2508 235.902 40.3621 227.859C39.9929 227.493 39.6043 227.146 39.2739 226.74C38.5647 225.927 37.8458 225.799 36.816 226.294C33.7849 227.73 30.608 228.503 27.2271 228.453C16.7346 228.315 7.90349 220.291 6.24218 209.693C4.49344 198.5 12.2948 184.93 27.0619 184.544C38.4579 184.237 46.3952 192.28 48.5326 201.501C49.5138 205.731 49.1446 209.861 47.8233 213.932C47.5999 214.636 47.3862 215.359 47.0364 216.003C46.4924 217.013 46.7547 217.736 47.5125 218.499C50.3104 221.302 53.0598 224.145 55.8384 226.977C60.5794 231.821 65.3496 236.635 70.0421 241.518C71.3731 242.915 72.8109 243.499 74.7054 243.489C90.5023 243.44 106.299 243.45 122.096 243.43C122.504 243.43 122.922 243.41 123.33 243.37C123.738 243.341 124.02 242.756 123.748 242.459C123.272 241.904 122.767 241.379 122.261 240.855C119.784 238.319 117.307 235.773 114.81 233.247C113.595 232.019 112.789 230.623 112.789 228.81C112.77 224.343 117.103 221.549 121.037 223.511C122.077 224.026 122.864 224.878 123.66 225.7C128.625 230.771 133.638 235.783 138.515 240.914C140.215 242.717 142.022 243.549 144.509 243.509C153.7 243.38 162.89 243.44 172.071 243.45C173.198 243.45 174.345 243.469 175.462 243.648C176.812 243.866 177.988 244.569 178.989 245.51C179.746 246.213 180.475 246.966 181.204 247.719C193.328 260.07 205.443 272.422 217.558 284.784C217.995 285.229 218.432 285.675 218.87 286.121C220.579 287.825 221.473 289.885 221.464 292.331C221.464 293.064 221.473 293.807 221.473 294.55C221.464 351.188 221.464 407.815 221.444 464.443C221.444 468.335 221.813 467.949 217.937 467.949C215.664 467.969 213.4 467.939 211.127 467.91C210.544 467.9 210.155 467.603 210.126 466.969C210.097 465.919 210.077 464.859 210.077 463.809C210.077 421.504 210.077 379.179 210.077 336.875C210.077 335.924 210.097 334.983 210.068 334.032C210.019 332.526 209.757 332.259 208.212 332.18C207.493 332.14 206.764 332.17 206.046 332.17C191.385 332.16 176.725 332.15 162.065 332.15C161.346 332.15 160.627 332.16 159.898 332.16C158.927 332.17 158.081 332.507 157.392 333.19C156.877 333.715 156.362 334.22 155.847 334.745C147.239 343.541 138.632 352.327 130.024 361.103C129.587 361.558 129.169 362.024 128.712 362.46C128.081 363.054 128.081 363.698 128.421 364.441C129.247 366.263 129.888 368.145 130.257 370.116C132.589 382.498 123.894 395.741 109.457 396.147C99.3238 396.424 90.8229 389.55 88.2873 379.992C85.0229 367.699 92.5425 354.466 106.309 352.356C109.836 351.822 113.314 352.327 116.665 353.585C117.345 353.832 118.006 354.12 118.667 354.427C119.211 354.684 119.667 354.536 120.066 354.149C120.367 353.862 120.658 353.565 120.95 353.268C127.158 346.938 133.366 340.619 139.564 334.29C139.972 333.923 140.293 333.517 140.798 332.962Z" fill="#00A0FA"/>
<path fill-rule="evenodd" clip-rule="evenodd" d="M290.153 379.001C290.153 350.682 290.153 322.364 290.153 294.045C290.153 293.421 290.163 292.787 290.153 292.163C290.124 289.934 290.93 288.052 292.436 286.477C293.66 285.2 294.914 283.942 296.157 282.684C302.501 276.196 308.923 269.787 315.15 263.2C317.628 260.566 320.377 259.446 323.933 259.456C349.843 259.545 375.764 259.476 401.674 259.575C404.249 259.585 406.114 259.278 406.629 256.356C410.233 248.194 418.715 242.479 428.789 243.568C437.494 244.5 445.257 251.314 447.219 260.358C450.639 276.137 438.203 287.448 426.691 287.339C418.054 287.24 411.729 283.308 407.338 275.869C407.018 275.324 406.746 274.76 406.493 274.185C405.036 270.917 405.861 271.342 401.927 271.333C377.153 271.313 352.369 271.313 327.596 271.313C327.188 271.313 326.77 271.342 326.362 271.313C324.341 271.105 322.845 271.957 321.446 273.413C315.578 279.494 309.661 285.517 303.706 291.499C302.365 292.846 301.656 294.253 301.675 296.214C301.743 303.574 301.705 310.943 301.705 318.312C301.705 318.421 301.705 318.521 301.705 318.62C301.763 320.066 301.986 320.323 303.278 320.383C304.211 320.422 305.144 320.412 306.076 320.412C348.61 320.412 391.153 320.412 433.686 320.412C442.362 320.412 451.028 320.412 459.703 320.412C460.529 320.402 461.355 320.412 462.181 320.383C462.851 320.363 463.356 320.076 463.609 319.392C463.92 318.62 464.201 317.827 464.58 317.074C468.68 308.784 475.325 304.326 484.399 304.386C495.251 304.455 504.636 312.667 505.608 324.622C506.569 336.587 498.127 346.215 487.741 347.949C477.919 349.593 468.495 344.611 464.483 335.25C463.541 333.051 462.472 332.358 460.189 332.368C431.383 332.447 402.578 332.417 373.772 332.447C372.83 332.447 371.45 331.833 371.032 332.982C370.741 333.765 371.965 334.458 372.577 335.131C378.231 341.273 384.09 347.216 390.006 353.089C390.453 353.535 390.9 353.971 391.376 354.387C391.794 354.753 392.27 354.852 392.804 354.595C393.368 354.347 393.931 354.08 394.514 353.842C406.095 348.999 420.881 355.199 423.747 370.077C426.409 383.904 416.053 395.325 404.288 396.068C392.445 396.83 383.623 388.758 381.564 378.823C380.757 374.93 381 371.077 382.185 367.293C382.467 366.382 382.749 365.471 383.176 364.639C383.72 363.589 383.39 362.856 382.623 362.153C382.166 361.727 381.748 361.251 381.311 360.805C372.781 352.089 364.232 343.372 355.692 334.666C355.255 334.21 354.818 333.774 354.371 333.329C353.594 332.586 352.671 332.16 351.582 332.16C350.97 332.17 350.349 332.15 349.727 332.15C334.96 332.16 320.202 332.16 305.435 332.18C301.501 332.18 301.714 331.863 301.714 335.894C301.714 378.417 301.714 420.949 301.705 463.482C301.705 468.652 302.365 467.91 297.255 467.959C295.292 467.989 293.33 467.959 291.368 467.939C290.649 467.929 290.211 467.583 290.202 466.8C290.192 465.849 290.182 464.908 290.182 463.967C290.163 435.639 290.163 407.32 290.153 379.001Z" fill="#00A0FA"/>
</svg>
