<svg width="31" height="30" viewBox="0 0 31 30" fill="none" xmlns="http://www.w3.org/2000/svg">
<path d="M17.2003 0C18.8653 0.00443977 19.7103 0.0133193 20.4399 0.0340382L20.727 0.0443976C21.0585 0.056237 21.3856 0.0710362 21.7807 0.0887953C23.3553 0.162791 24.4298 0.411419 25.3725 0.77696C26.3492 1.15286 27.1721 1.66195 27.9949 2.48331C28.7474 3.22312 29.3297 4.11802 29.7013 5.10573C30.0668 6.04844 30.3154 7.12287 30.3894 8.69899C30.4072 9.09264 30.422 9.41971 30.4338 9.75269L30.4427 10.0398C30.4649 10.7679 30.4738 11.613 30.4767 13.2779L30.4782 14.3819V16.3206C30.4818 17.4 30.4705 18.4795 30.4442 19.5587L30.4353 19.8458C30.4235 20.1787 30.4087 20.5058 30.3909 20.8995C30.3169 22.4756 30.0653 23.5485 29.7013 24.4927C29.3308 25.481 28.7484 26.3761 27.9949 27.1151C27.2549 27.8674 26.36 28.4497 25.3725 28.8215C24.4298 29.187 23.3553 29.4357 21.7807 29.5097C21.4295 29.5262 21.0783 29.541 20.727 29.5541L20.4399 29.5629C19.7103 29.5837 18.8653 29.594 17.2003 29.597L16.0963 29.5985H14.1591C13.0791 29.6022 11.9992 29.5908 10.9196 29.5644L10.6325 29.5555C10.2811 29.5422 9.92989 29.5269 9.57874 29.5097C8.00411 29.4357 6.92968 29.187 5.98549 28.8215C4.9979 28.4506 4.10335 27.8682 3.36455 27.1151C2.61134 26.3756 2.02851 25.4807 1.65672 24.4927C1.29118 23.55 1.04255 22.4756 0.968555 20.8995C0.952067 20.5483 0.937268 20.1971 0.924158 19.8458L0.916758 19.5587C0.889486 18.4795 0.877152 17.4001 0.87976 16.3206V13.2779C0.87563 12.1984 0.886484 11.1189 0.912319 10.0398L0.922678 9.75269C0.934517 9.41971 0.949317 9.09264 0.967076 8.69899C1.04107 7.12287 1.2897 6.04992 1.65524 5.10573C2.02687 4.117 2.61086 3.22183 3.36603 2.48331C4.10465 1.73073 4.9986 1.1484 5.98549 0.77696C6.92968 0.411419 8.00263 0.162791 9.57874 0.0887953C9.9724 0.0710362 10.3009 0.056237 10.6325 0.0443976L10.9196 0.035518C11.9987 0.00922392 13.0782 -0.00212324 14.1576 0.00147982L17.2003 0ZM15.679 7.39961C13.7165 7.39961 11.8344 8.17921 10.4467 9.56691C9.05897 10.9546 8.27937 12.8367 8.27937 14.7992C8.27937 16.7617 9.05897 18.6438 10.4467 20.0315C11.8344 21.4192 13.7165 22.1988 15.679 22.1988C17.6415 22.1988 19.5236 21.4192 20.9113 20.0315C22.299 18.6438 23.0786 16.7617 23.0786 14.7992C23.0786 12.8367 22.299 10.9546 20.9113 9.56691C19.5236 8.17921 17.6415 7.39961 15.679 7.39961ZM15.679 10.3595C16.262 10.3594 16.8394 10.4741 17.3781 10.6971C17.9168 10.9202 18.4063 11.2471 18.8186 11.6593C19.2309 12.0715 19.558 12.5609 19.7813 13.0995C20.0045 13.6381 20.1194 14.2154 20.1195 14.7985C20.1196 15.3815 20.0049 15.9589 19.7818 16.4976C19.5588 17.0363 19.2318 17.5258 18.8196 17.9381C18.4074 18.3504 17.9181 18.6775 17.3794 18.9008C16.8408 19.124 16.2635 19.2389 15.6805 19.239C14.503 19.239 13.3737 18.7712 12.5411 17.9386C11.7085 17.106 11.2407 15.9767 11.2407 14.7992C11.2407 13.6217 11.7085 12.4925 12.5411 11.6598C13.3737 10.8272 14.503 10.3595 15.6805 10.3595M23.4501 5.17973C22.9594 5.17973 22.4889 5.37463 22.142 5.72155C21.7951 6.06848 21.6002 6.53901 21.6002 7.02963C21.6002 7.52026 21.7951 7.99079 22.142 8.33771C22.4889 8.68464 22.9594 8.87954 23.4501 8.87954C23.9407 8.87954 24.4112 8.68464 24.7581 8.33771C25.1051 7.99079 25.3 7.52026 25.3 7.02963C25.3 6.53901 25.1051 6.06848 24.7581 5.72155C24.4112 5.37463 23.9407 5.17973 23.4501 5.17973Z" fill="black"/>
</svg>
