<svg width="28" height="28" viewBox="0 0 28 28" fill="none" xmlns="http://www.w3.org/2000/svg">
<path d="M0.757812 2.38846C0.757812 1.33457 1.63356 0.480469 2.71409 0.480469H25.4401C26.5207 0.480469 27.3964 1.33457 27.3964 2.38846V25.2111C27.3964 26.265 26.5207 27.1191 25.4401 27.1191H2.71409C1.63356 27.1191 0.757812 26.265 0.757812 25.2111V2.38846ZM8.98748 22.7803V10.7513H4.99002V22.7803H8.98748ZM6.98958 9.10805C8.38311 9.10805 9.25053 8.18569 9.25053 7.03024C9.22556 5.84981 8.38478 4.95243 7.01622 4.95243C5.64766 4.95243 4.7536 5.85148 4.7536 7.03024C4.7536 8.18569 5.62102 9.10805 6.96294 9.10805H6.98958ZM15.161 22.7803V16.0624C15.161 15.7028 15.1876 15.3431 15.2942 15.0868C15.5822 14.3692 16.2398 13.625 17.3453 13.625C18.7922 13.625 19.3699 14.7271 19.3699 16.3454V22.7803H23.3673V15.8809C23.3673 12.1848 21.3961 10.4666 18.7655 10.4666C16.6444 10.4666 15.6937 11.6321 15.161 12.4529V12.4945H15.1343L15.161 12.4529V10.7513H11.1652C11.2151 11.8801 11.1652 22.7803 11.1652 22.7803H15.161Z" fill="black"/>
</svg>
