<svg width="65" height="61" viewBox="0 0 65 61" fill="none" xmlns="http://www.w3.org/2000/svg">
<path fill-rule="evenodd" clip-rule="evenodd" d="M30.3073 0.131361C30.3694 0.203647 30.4598 0.183843 30.5374 0.202657C31.3445 0.401689 31.902 0.892835 32.1497 1.70184C32.4741 2.76038 31.9953 3.86446 31.0036 4.34571C30.6987 4.39324 30.6695 4.59821 30.6715 4.86953C30.6812 6.86877 30.6763 8.86801 30.6763 10.8682C30.6763 10.9415 30.6744 11.0158 30.6773 11.0891C30.6783 11.1287 30.6647 11.1762 30.7064 11.2019C30.754 11.2326 30.7822 11.1861 30.8094 11.1613C30.8638 11.1118 30.9123 11.0584 30.9638 11.0059C31.9049 10.0464 32.8461 9.08685 33.7882 8.12634C33.8387 8.07485 33.8892 8.02138 33.9426 7.97088C34.1242 7.80056 34.3369 7.7055 34.5865 7.70946C34.7001 7.71045 34.8138 7.70946 34.9274 7.70946C36.3415 7.70946 37.7556 7.71144 39.1697 7.71243C39.2426 7.71243 39.3144 7.71144 39.3873 7.71144C39.4951 7.71045 39.5903 7.67282 39.667 7.59658C39.9535 7.30743 40.2361 7.01631 40.5236 6.72816C40.5916 6.66083 40.5625 6.59646 40.5314 6.52913C40.3634 6.16968 40.3002 5.79142 40.3255 5.39434C40.3867 4.43285 41.12 3.60206 42.0455 3.41293C43.1362 3.19013 44.3639 3.88724 44.5882 5.19234C44.7902 6.37366 44.0676 7.42725 42.9702 7.7055C42.5457 7.81244 42.131 7.77383 41.7221 7.62925C41.6541 7.6045 41.5862 7.57776 41.5221 7.5441C41.4346 7.49954 41.3686 7.52132 41.3016 7.58965C41.084 7.81541 40.8626 8.03524 40.6441 8.25903C40.5197 8.38479 40.3945 8.51054 40.274 8.64026C40.107 8.81949 39.905 8.89871 39.6641 8.89574C39.365 8.89277 39.0658 8.89376 38.7667 8.89574C38.7084 8.89574 38.6501 8.90564 38.5734 8.91257C38.6171 9.02843 38.6938 9.08388 38.757 9.14824C39.2445 9.64731 39.734 10.1444 40.2225 10.6445C40.2876 10.7108 40.3566 10.7781 40.4081 10.8554C40.5673 11.0891 40.5469 11.3822 40.3653 11.5812C40.1711 11.7941 39.8768 11.8327 39.633 11.6693C39.5485 11.6119 39.4737 11.5356 39.4019 11.4614C38.6715 10.7187 37.9421 9.97309 37.2127 9.22944C37.1612 9.17696 37.1068 9.12745 37.0602 9.07199C36.9446 8.93039 36.797 8.88881 36.6203 8.89079C36.0531 8.89673 35.4849 8.89871 34.9167 8.89079C34.737 8.88881 34.6059 8.95416 34.4816 9.0819C33.2734 10.3197 32.0613 11.5545 30.8482 12.7873C30.7317 12.9051 30.6695 13.0289 30.6705 13.2032C30.6763 14.8667 30.6744 16.5283 30.6754 18.1909C30.6754 18.2315 30.6822 18.2711 30.686 18.3107C30.7871 18.3325 30.8181 18.2503 30.8657 18.2037C31.5611 17.4987 32.2536 16.7907 32.9471 16.0837C33.0121 16.0173 33.0772 15.948 33.1442 15.8827C33.3006 15.7312 33.4861 15.651 33.7027 15.649C33.8056 15.649 33.9096 15.648 34.0125 15.649C37.4604 15.65 40.9073 15.652 44.3542 15.653C44.4163 15.653 44.4785 15.651 44.5397 15.6539C44.7271 15.6629 44.8776 15.5925 45.0097 15.4569C45.8897 14.5538 46.7715 13.6537 47.6534 12.7516C47.6826 12.7219 47.7107 12.6892 47.7379 12.6585C47.769 12.6249 47.7748 12.5833 47.7583 12.5427C47.7253 12.4546 47.6845 12.3684 47.6525 12.2793C47.2261 11.1217 47.8399 9.70078 49.1899 9.38787C50.6293 9.05615 51.7841 10.1929 51.8229 11.4297C51.8559 12.511 51.1586 13.4438 50.1155 13.6785C49.7357 13.7636 49.356 13.7418 48.9859 13.6091C48.8985 13.5775 48.8121 13.5438 48.7257 13.5081C48.6703 13.4864 48.6256 13.4992 48.5839 13.5379C48.5538 13.5656 48.5246 13.5973 48.4955 13.626C47.8972 14.236 47.298 14.8459 46.6997 15.4569C46.6628 15.4935 46.6268 15.5312 46.5967 15.5727C46.5763 15.6015 46.5899 15.6421 46.621 15.644C46.7133 15.6529 46.8055 15.652 46.8988 15.652C48.7878 15.653 50.6769 15.6539 52.5649 15.6539C52.6679 15.6539 52.7718 15.65 52.8747 15.6609C53.1982 15.6926 53.4128 15.9302 53.4089 16.2431C53.406 16.558 53.1865 16.7897 52.8631 16.8135C52.7601 16.8224 52.6562 16.8174 52.5533 16.8174C48.6518 16.8174 44.7504 16.8174 40.849 16.8174C40.746 16.8174 40.6431 16.8194 40.5392 16.8224C40.4984 16.8234 40.4712 16.8808 40.4974 16.9125C40.5518 16.9749 40.6081 17.0373 40.6654 17.0977C41.0568 17.5027 41.4492 17.9067 41.8387 18.3137C41.9028 18.38 41.9688 18.4503 42.0164 18.5295C42.1572 18.7622 42.1135 19.0682 41.9212 19.2514C41.725 19.4385 41.4288 19.4633 41.2093 19.3029C41.1258 19.2415 41.0549 19.1623 40.983 19.088C40.3517 18.4374 39.7214 17.7859 39.0901 17.1333C39.0318 17.0729 38.9735 17.0135 38.9162 16.9531C38.824 16.858 38.7133 16.8125 38.5821 16.8165C38.5307 16.8184 38.4792 16.8165 38.4277 16.8165C37.0243 16.8155 35.6199 16.8155 34.2165 16.8155C34.1543 16.8155 34.0931 16.8155 34.031 16.8155C33.9115 16.8184 33.8105 16.864 33.725 16.9472C33.7037 16.968 33.6813 16.9917 33.659 17.0135C32.7247 17.9661 31.7923 18.9197 30.855 19.8693C30.7288 19.997 30.6608 20.1317 30.6695 20.3149C30.6793 20.5139 30.6725 20.7139 30.6725 20.914C30.6725 27.9752 30.6725 35.0364 30.6725 42.0976C30.6725 42.5749 30.7346 42.5105 30.2626 42.5154C30.0664 42.5184 29.8702 42.5184 29.674 42.5145C29.541 42.5125 29.5215 42.4877 29.5167 42.3422C29.5147 42.2689 29.5157 42.1956 29.5157 42.1213C29.5167 36.1642 29.5186 30.2091 29.5196 24.2529C29.5196 23.6687 29.5167 23.6588 29.1185 23.2538C27.614 21.722 26.1096 20.1891 24.6052 18.6573C24.5469 18.5978 24.4886 18.5384 24.4294 18.479C24.2526 18.3018 24.2507 18.2958 24.0088 18.4008C22.924 18.8682 21.6254 18.3473 21.1729 17.17C20.6513 15.8134 21.5555 14.3736 22.8948 14.1973C24.0467 14.0458 25.0898 14.8479 25.3016 15.9797C25.3773 16.3857 25.3258 16.7739 25.1947 17.1571C25.1704 17.2264 25.1403 17.2947 25.1141 17.3621C25.0957 17.4066 25.1083 17.4472 25.1345 17.4799C25.1666 17.5215 25.2054 17.5561 25.2413 17.5928C26.5981 18.9771 27.9559 20.3614 29.3147 21.7437C29.3623 21.7933 29.3963 21.8665 29.4788 21.8655C29.5361 21.8141 29.5128 21.7467 29.5128 21.6883C29.5157 20.2149 29.5118 18.7414 29.5215 17.268C29.5235 17.0412 29.4205 16.8976 29.2778 16.7521C27.919 15.3698 26.5622 13.9844 25.2054 12.6011C25.0957 12.4892 24.9849 12.3783 24.8771 12.2654C24.7781 12.1615 24.6615 12.109 24.5178 12.1149C24.3944 12.1179 24.2701 12.1149 24.1458 12.1149C21.8857 12.1149 19.6257 12.1169 17.3647 12.1179C17.2714 12.1179 17.1792 12.1179 17.0859 12.1179C16.814 12.1179 16.5857 12.0218 16.3934 11.8218C16.004 11.4168 15.6067 11.0168 15.2134 10.6138C15.1629 10.5623 15.1027 10.5157 15.0609 10.4583C14.9181 10.2543 14.7491 10.2038 14.5374 10.3494C13.641 10.6524 12.8329 10.4999 12.1841 9.78891C11.5645 9.10962 11.4275 8.29765 11.782 7.44606C12.1317 6.60636 12.7844 6.16077 13.6847 6.11522C14.72 6.06274 15.6067 6.79946 15.8379 7.75501C15.9408 8.18476 15.9234 8.61055 15.7864 9.03041C15.7573 9.12051 15.7213 9.20765 15.6854 9.29479C15.6582 9.36015 15.667 9.41659 15.7155 9.46709C15.7816 9.53343 15.8457 9.60176 15.9117 9.66909C16.2691 10.0345 16.6294 10.3959 16.982 10.7653C17.0986 10.888 17.2248 10.9395 17.3928 10.9385C18.3738 10.9326 19.3537 10.9346 20.3347 10.9336C20.3755 10.9336 20.4172 10.9306 20.458 10.9277C20.4988 10.9237 20.5212 10.8682 20.492 10.8346C20.4376 10.7722 20.3813 10.7098 20.323 10.6504C20.0831 10.4038 19.8413 10.1592 19.6014 9.91269C19.48 9.7899 19.4042 9.64731 19.4042 9.4661C19.4052 9.02248 19.8481 8.74918 20.2376 8.95317C20.3405 9.00763 20.4182 9.0918 20.4988 9.173C20.966 9.6483 21.4331 10.1256 21.9003 10.6019C21.944 10.6464 21.9916 10.688 22.0305 10.7365C22.1509 10.8861 22.3014 10.9455 22.4928 10.9376C22.7812 10.9257 23.0706 10.9346 23.3601 10.9336C23.8136 10.9336 24.2691 10.9475 24.7217 10.9267C25.0607 10.9118 25.3103 11.0435 25.5424 11.2831C26.7623 12.5387 27.9909 13.7864 29.2175 15.036C29.2952 15.1153 29.3778 15.1885 29.4759 15.2816C29.5274 15.1658 29.5128 15.0717 29.5128 14.9806C29.5138 13.7389 29.5147 12.4971 29.5147 11.2554C29.5147 10.9187 29.5099 10.5811 29.5177 10.2454C29.5215 10.0642 29.473 9.91467 29.3399 9.79485C29.2943 9.75227 29.2525 9.70474 29.2088 9.66018C27.311 7.69758 25.4123 5.73201 23.5155 3.76841C23.429 3.67929 23.3474 3.58324 23.2678 3.48719C23.1357 3.32876 23.1357 3.00199 23.2571 2.83266C23.397 2.63858 23.5873 2.5554 23.8233 2.58511C23.9195 2.596 24.003 2.63759 24.0739 2.69799C24.1448 2.75939 24.2118 2.82573 24.2769 2.89208C25.928 4.60118 27.5781 6.31128 29.2331 8.01841C29.3059 8.09366 29.3458 8.2214 29.4788 8.22338C29.5313 8.12535 29.506 8.0194 29.506 7.91741C29.5099 6.88659 29.5109 5.85479 29.5128 4.82398C29.5128 4.7616 29.5099 4.69723 29.5128 4.63485C29.5186 4.52692 29.4778 4.46156 29.3729 4.42096C29.0622 4.29917 28.7844 4.12291 28.5484 3.87734C27.4324 2.70889 27.9307 0.72945 29.4604 0.252167C29.5963 0.209588 29.7498 0.225432 29.8702 0.130371C30.0188 0.131361 30.1626 0.131361 30.3073 0.131361Z" fill="#00A0FA"/>
<path fill-rule="evenodd" clip-rule="evenodd" d="M20.631 60.471C20.5863 60.4185 20.5212 60.4314 20.463 60.4205C20.3192 60.3947 20.1755 60.374 20.0327 60.3403C19.585 60.2353 19.2509 59.9521 18.9576 59.6095C18.8226 59.4521 18.7031 59.2798 18.5933 59.1005C16.5324 55.712 14.4724 52.3235 12.4105 48.936C11.8404 47.9963 11.2693 47.0586 10.6972 46.1208C10.6613 46.0604 10.6234 46.001 10.5943 45.9376C10.5797 45.9089 10.5797 45.8683 10.6312 45.8634C10.6914 45.8584 10.7507 45.8584 10.8109 45.8584C11.9035 45.8584 12.9952 45.8584 14.0868 45.8584C14.1383 45.8584 14.1908 45.8604 14.2413 45.8604C14.2879 45.8614 14.3238 45.8812 14.3491 45.9218C14.3869 45.9802 14.4248 46.0386 14.4598 46.0981C16.0672 48.7726 17.6755 51.4472 19.2829 54.1218C19.7773 54.9436 20.2716 55.7655 20.765 56.5884C20.8136 56.6696 20.866 56.7498 20.9204 56.8369C21.0204 56.8023 21.0428 56.7082 21.0855 56.6399C21.4643 56.0121 21.8392 55.3833 22.216 54.7555C23.5301 52.5641 24.8413 50.3738 26.1544 48.1825C26.5662 47.4962 26.978 46.807 27.3898 46.1188C27.4121 46.0822 27.4393 46.0466 27.4568 46.007C27.5102 45.8862 27.6015 45.8574 27.7258 45.8584C28.8262 45.8624 29.9266 45.8604 31.027 45.8604C31.061 45.8604 31.095 45.8604 31.13 45.8624C31.198 45.8663 31.2251 45.9069 31.1941 45.9634C31.1659 46.0178 31.1329 46.0693 31.1008 46.1198C28.8592 49.7856 26.6186 53.4524 24.376 57.1181C23.9992 57.735 23.6224 58.3529 23.2446 58.9688C23.0804 59.2372 22.9056 59.4946 22.6939 59.7303C22.3209 60.1442 21.8615 60.367 21.3167 60.4195C21.2409 60.4294 21.1603 60.4146 21.0952 60.472C20.9408 60.471 20.7854 60.471 20.631 60.471Z" fill="#00A0FA"/>
<path fill-rule="evenodd" clip-rule="evenodd" d="M0 45.8516C0.952776 45.8526 1.90555 45.8526 2.85833 45.8526C2.93603 45.8526 3.01372 45.8555 3.08948 45.8575C3.11959 45.8585 3.13124 45.8813 3.14581 45.905C3.02926 46.007 2.88649 45.9882 2.75149 45.9882C2.0221 45.9892 1.29271 45.9882 0.563313 45.9892C0.202987 45.9892 0.187447 46.005 0.187447 46.3744C0.186476 49.3955 0.187447 52.4157 0.184534 55.4339C0.184534 55.5943 0.227268 55.7715 0.0951805 55.9082C0.0339931 55.8468 0.0708997 55.7428 0 55.6854C0 52.4068 0 49.1282 0 45.8516Z" fill="#00A0FA"/>
<path fill-rule="evenodd" clip-rule="evenodd" d="M37.384 60.1205C35.5183 60.1205 33.6535 60.1205 31.7878 60.1205C31.4372 60.1205 31.4741 60.1512 31.4741 59.7927C31.4721 59.1085 31.4731 58.4242 31.4731 57.741C31.4731 57.6984 31.4721 57.6538 31.4731 57.6093C31.4779 57.431 31.4779 57.4291 31.6431 57.4251C31.7033 57.4231 31.7635 57.4251 31.8237 57.4251C33.0785 57.4251 34.3343 57.4251 35.5892 57.4251C37.721 57.4251 39.8538 57.4251 41.9847 57.4251C42.2596 57.4251 42.5354 57.4261 42.8073 57.3677C42.9336 57.3419 43.0579 57.3073 43.1764 57.2578C43.3774 57.1696 43.5163 57.0231 43.5882 56.8112C43.6455 56.6458 43.6776 56.4745 43.6785 56.2973C43.6785 55.9903 43.6766 55.6823 43.6795 55.3754C43.6795 55.2417 43.6552 55.113 43.6222 54.9862C43.5445 54.6882 43.3658 54.4763 43.0812 54.3614C42.8549 54.2693 42.6189 54.2267 42.3771 54.2148C42.2314 54.2069 42.0847 54.2099 41.9391 54.2099C39.815 54.2099 37.6909 54.2089 35.5688 54.2099C35.0608 54.2099 34.5548 54.1881 34.0527 54.1069C33.6875 54.0465 33.3301 53.9514 32.9911 53.796C32.3064 53.4771 31.8684 52.9464 31.6741 52.2057C31.5858 51.8661 31.5314 51.5195 31.5168 51.168C31.4896 50.5293 31.4867 49.8896 31.5178 49.2499C31.5411 48.7756 31.6217 48.3102 31.7722 47.8597C32.0539 47.014 32.6026 46.4407 33.434 46.1575C33.6049 46.0971 33.7798 46.0486 33.9555 46.0089C34.4023 45.906 34.8559 45.8723 35.3114 45.8634C35.6989 45.8555 36.0855 45.8604 36.472 45.8604C39.5498 45.8604 42.6277 45.8604 45.7055 45.8604C46.0512 45.8604 46.0192 45.8188 46.0202 46.1882C46.0211 46.8704 46.0202 47.5547 46.0202 48.2379C46.0202 48.2736 46.0202 48.3082 46.0202 48.3439C46.0182 48.5647 46.0182 48.5657 45.8113 48.5696C45.7521 48.5696 45.6919 48.5696 45.6317 48.5696C42.4247 48.5696 39.2177 48.5696 36.0116 48.5696C35.8223 48.5696 35.6329 48.5736 35.4444 48.5805C35.2716 48.5884 35.1055 48.631 34.9433 48.6954C34.6966 48.7954 34.5295 48.9707 34.448 49.2301C34.3955 49.3975 34.3596 49.5688 34.3557 49.746C34.3508 50.0262 34.3518 50.3065 34.3528 50.5877C34.3538 50.7382 34.3868 50.8828 34.4305 51.0244C34.515 51.2937 34.6908 51.4739 34.9511 51.567C35.155 51.6403 35.3687 51.669 35.5833 51.6769C35.7038 51.6819 35.8242 51.6809 35.9446 51.6809C38.0172 51.6809 40.0889 51.6809 42.1605 51.6809C42.6073 51.6809 43.055 51.6868 43.4988 51.7433C43.9 51.7957 44.2972 51.869 44.6789 52.0067C45.6239 52.3503 46.2018 53.0236 46.4087 54.0247C46.4737 54.3416 46.5203 54.6624 46.5223 54.9882C46.5262 55.5843 46.5271 56.1804 46.5213 56.7775C46.5174 57.1548 46.4592 57.5271 46.3708 57.8935C46.1542 58.7985 45.6103 59.4045 44.7673 59.7452C44.3652 59.9066 43.9466 59.9967 43.5192 60.0541C43.0744 60.1165 42.6286 60.1215 42.1809 60.1215C40.5822 60.1224 38.9836 60.1205 37.384 60.1205Z" fill="#00A0FA"/>
<path fill-rule="evenodd" clip-rule="evenodd" d="M18.5968 29.0179C18.4958 28.9456 18.4123 28.9694 18.3336 28.9664C17.106 28.9248 15.8774 28.9387 14.6498 28.9357C13.2143 28.9327 11.7798 28.9367 10.3453 28.9387C10.1384 28.9387 9.93152 28.9535 9.72562 28.9426C9.48476 28.9288 9.29634 28.9753 9.24583 29.2536C8.82529 30.1041 8.15029 30.5666 7.21597 30.5478C6.05535 30.525 5.30944 29.6199 5.15308 28.7089C4.93649 27.4484 5.89898 26.1205 7.35291 26.1611C8.13183 26.1819 8.72525 26.5661 9.13317 27.2434C9.17105 27.3058 9.2167 27.3692 9.23321 27.4385C9.29439 27.6999 9.45173 27.7593 9.70522 27.7573C11.8002 27.7465 13.8951 27.7524 15.991 27.7494C16.1008 27.7494 16.2134 27.7702 16.3339 27.7257C16.3076 27.6167 16.2261 27.5643 16.1629 27.5009C15.4666 26.7968 14.7682 26.0948 14.0709 25.3917C14.0049 25.3264 13.9359 25.261 13.8776 25.1877C13.6902 24.9521 13.7038 24.6233 13.898 24.4094C14.1078 24.1787 14.4895 24.1847 14.6837 24.3718C14.7886 24.4738 14.8935 24.5748 14.9965 24.6788C15.9211 25.6116 16.8447 26.5443 17.7684 27.4781C17.8198 27.5296 17.8703 27.5811 17.9228 27.6336C18.0151 27.7257 18.1258 27.7752 18.2569 27.7742C18.3288 27.7742 18.4016 27.7752 18.4735 27.7752C20.7025 27.7752 22.9324 27.7742 25.1614 27.7742C25.511 27.7742 25.5265 27.8098 25.5256 27.4197C25.5236 26.7453 25.5188 26.073 25.5304 25.3996C25.5343 25.1788 25.4615 25.0244 25.3109 24.8729C24.1979 23.746 23.0868 22.6172 21.9845 21.4784C21.8087 21.2962 21.6271 21.2289 21.3823 21.2299C18.152 21.2358 14.9207 21.2338 11.6904 21.2338C11.6283 21.2338 11.5661 21.2318 11.5039 21.2348C11.3281 21.2417 11.1825 21.1714 11.0552 21.0546C11.0086 21.012 10.9669 20.9655 10.9231 20.9209C10.1345 20.1169 9.3449 19.3148 8.55626 18.5107C8.51935 18.4741 8.4805 18.4394 8.44748 18.3988C8.37658 18.3176 8.30471 18.3048 8.20176 18.3543C7.89874 18.4979 7.58115 18.5751 7.24316 18.5702C6.19423 18.5563 5.31138 17.7542 5.1453 16.6947C4.97048 15.5757 5.75038 14.2192 7.22665 14.1805C8.3659 14.1498 9.15939 14.9539 9.37306 15.8758C9.47116 16.2986 9.43425 16.7115 9.30216 17.1185C9.27983 17.1888 9.25846 17.2611 9.2235 17.3255C9.16911 17.4265 9.19533 17.4987 9.27109 17.575C9.5508 17.8552 9.82566 18.1394 10.1034 18.4226C10.5774 18.9068 11.0543 19.3881 11.5234 19.8762C11.6564 20.0159 11.8002 20.0743 11.9896 20.0733C13.5688 20.0683 15.148 20.0693 16.7272 20.0674C16.768 20.0674 16.8098 20.0654 16.8506 20.0614C16.8913 20.0584 16.9195 20 16.8923 19.9703C16.8447 19.9149 16.7942 19.8624 16.7437 19.8099C16.4961 19.5564 16.2484 19.3019 15.9988 19.0494C15.8774 18.9266 15.7968 18.787 15.7968 18.6058C15.7948 18.1592 16.228 17.88 16.6213 18.076C16.7253 18.1275 16.8039 18.2127 16.8836 18.2949C17.3799 18.8019 17.881 19.3029 18.3686 19.8158C18.5386 19.9961 18.7192 20.0792 18.9678 20.0753C19.8866 20.0624 20.8054 20.0683 21.7232 20.0693C21.8359 20.0693 21.9505 20.0713 22.0622 20.0891C22.1972 20.1109 22.3147 20.1812 22.4147 20.2753C22.4905 20.3456 22.5633 20.4209 22.6362 20.4961C23.8483 21.7309 25.0594 22.9657 26.2705 24.2015C26.3142 24.246 26.3579 24.2906 26.4016 24.3352C26.5726 24.5055 26.6619 24.7115 26.6609 24.956C26.6609 25.0293 26.6619 25.1036 26.6619 25.1778C26.6609 30.8399 26.6609 36.5009 26.659 42.162C26.659 42.5511 26.6959 42.5125 26.3084 42.5125C26.0811 42.5145 25.8548 42.5115 25.6276 42.5085C25.5693 42.5076 25.5304 42.4778 25.5275 42.4145C25.5246 42.3095 25.5227 42.2036 25.5227 42.0986C25.5227 37.8694 25.5227 33.6382 25.5227 29.409C25.5227 29.314 25.5246 29.2199 25.5217 29.1248C25.5168 28.9743 25.4906 28.9476 25.3362 28.9397C25.2643 28.9357 25.1915 28.9387 25.1196 28.9387C23.654 28.9377 22.1884 28.9367 20.7228 28.9367C20.651 28.9367 20.5791 28.9377 20.5063 28.9377C20.4091 28.9387 20.3246 28.9723 20.2557 29.0407C20.2042 29.0931 20.1527 29.1436 20.1013 29.1961C19.2408 30.0754 18.3802 30.9538 17.5197 31.8311C17.476 31.8766 17.4343 31.9232 17.3886 31.9667C17.3255 32.0262 17.3255 32.0905 17.3595 32.1648C17.442 32.347 17.5061 32.5351 17.543 32.7322C17.7761 33.9699 16.9069 35.2939 15.4636 35.3345C14.4506 35.3622 13.6008 34.675 13.3473 33.7194C13.021 32.4906 13.7727 31.1676 15.149 30.9567C15.5015 30.9032 15.8492 30.9538 16.1843 31.0795C16.2523 31.1043 16.3183 31.133 16.3844 31.1637C16.4388 31.1894 16.4844 31.1746 16.5242 31.136C16.5543 31.1072 16.5835 31.0775 16.6126 31.0478C17.2332 30.4151 17.8538 29.7833 18.4735 29.1506C18.5143 29.1139 18.5463 29.0733 18.5968 29.0179Z" fill="#00A0FA"/>
<path fill-rule="evenodd" clip-rule="evenodd" d="M33.5274 33.6204C33.5274 30.7893 33.5274 27.9583 33.5274 25.1273C33.5274 25.0649 33.5284 25.0016 33.5274 24.9392C33.5245 24.7164 33.6051 24.5282 33.7557 24.3708C33.878 24.243 34.0033 24.1173 34.1276 23.9915C34.7619 23.3429 35.4038 22.7023 36.0264 22.0438C36.2741 21.7804 36.5489 21.6685 36.9044 21.6695C39.4947 21.6784 42.0859 21.6715 44.6762 21.6814C44.9335 21.6824 45.12 21.6517 45.1715 21.3595C45.5318 20.5436 46.3797 19.9723 47.3869 20.0812C48.2571 20.1743 49.0331 20.8555 49.2293 21.7596C49.5711 23.337 48.328 24.4678 47.1771 24.4569C46.3137 24.447 45.6814 24.0539 45.2424 23.3103C45.2103 23.2558 45.1831 23.1994 45.1579 23.1419C45.0122 22.8152 45.0948 22.8577 44.7014 22.8568C42.2248 22.8548 39.7472 22.8548 37.2705 22.8548C37.2297 22.8548 37.188 22.8577 37.1472 22.8548C36.9452 22.834 36.7956 22.9191 36.6557 23.0647C36.0691 23.6727 35.4776 24.2747 34.8823 24.8728C34.7483 25.0075 34.6774 25.1481 34.6793 25.3442C34.6861 26.0799 34.6822 26.8166 34.6822 27.5533C34.6822 27.5642 34.6822 27.5741 34.6822 27.584C34.688 27.7286 34.7104 27.7543 34.8396 27.7603C34.9328 27.7642 35.026 27.7633 35.1193 27.7633C39.3713 27.7633 43.6243 27.7633 47.8764 27.7633C48.7437 27.7633 49.61 27.7633 50.4773 27.7633C50.5599 27.7623 50.6424 27.7633 50.725 27.7603C50.792 27.7583 50.8425 27.7296 50.8677 27.6613C50.8988 27.584 50.927 27.5048 50.9649 27.4296C51.3747 26.6007 52.039 26.1551 52.9462 26.1611C54.031 26.168 54.9692 26.9889 55.0664 28.1841C55.1625 29.3803 54.3185 30.3428 53.2803 30.516C52.2984 30.6804 51.3563 30.1823 50.9552 29.2466C50.8609 29.0268 50.7541 28.9575 50.5259 28.9584C47.6462 28.9664 44.7665 28.9634 41.8868 28.9664C41.7926 28.9664 41.6547 28.905 41.6129 29.0198C41.5838 29.0981 41.7061 29.1674 41.7673 29.2347C42.3326 29.8486 42.9182 30.4428 43.5097 31.03C43.5544 31.0745 43.5991 31.1181 43.6467 31.1597C43.6884 31.1963 43.736 31.2062 43.7894 31.1805C43.8458 31.1557 43.9021 31.129 43.9604 31.1052C45.1181 30.621 46.5963 31.2409 46.8828 32.7282C47.1489 34.1105 46.1136 35.2522 44.9374 35.3265C43.7535 35.4027 42.8716 34.5957 42.6657 33.6025C42.5851 33.2134 42.6094 32.8282 42.7279 32.4499C42.756 32.3588 42.7842 32.2677 42.8269 32.1846C42.8813 32.0796 42.8483 32.0063 42.7716 31.936C42.7259 31.8934 42.6842 31.8459 42.6405 31.8013C41.7877 30.93 40.933 30.0586 40.0793 29.1882C40.0356 29.1426 39.9919 29.0991 39.9472 29.0545C39.8695 28.9802 39.7773 28.9376 39.6685 28.9376C39.6073 28.9386 39.5452 28.9367 39.483 28.9367C38.0067 28.9376 36.5314 28.9376 35.0552 28.9396C34.6618 28.9396 34.6832 28.9079 34.6832 29.311C34.6832 33.5619 34.6832 37.8139 34.6822 42.0659C34.6822 42.5828 34.7483 42.5085 34.2374 42.5135C34.0412 42.5164 33.845 42.5135 33.6488 42.5115C33.577 42.5105 33.5332 42.4758 33.5323 42.3976C33.5313 42.3025 33.5303 42.2085 33.5303 42.1144C33.5284 39.2824 33.5284 36.4514 33.5274 33.6204Z" fill="#00A0FA"/>
<path fill-rule="evenodd" clip-rule="evenodd" d="M0.09375 55.9069C0.0976349 55.8456 0.105405 55.7861 0.105405 55.7238C0.104433 52.5531 0.103462 49.3844 0.102491 46.2128C0.102491 46.1524 0.10152 46.091 0.103462 46.0296C0.10929 45.9325 0.132599 45.9117 0.232636 45.9058C0.300622 45.9018 0.37055 45.9038 0.438536 45.9038C1.34081 45.9038 2.24211 45.9038 3.14438 45.9038C3.14827 46.0078 3.15701 46.1128 3.15701 46.2177C3.15701 49.1349 3.15701 52.055 3.15701 54.9742C3.15701 55.3247 3.17643 55.6752 3.24248 56.0188C3.36776 56.6684 3.74751 57.0764 4.36619 57.2576C4.73331 57.3655 5.11112 57.3893 5.48796 57.4061C5.65112 57.4131 5.81526 57.4091 5.97843 57.4091C8.53179 57.4091 11.0851 57.4071 13.6385 57.4091C14.0163 57.4091 13.9678 57.3675 13.9697 57.7428C13.9716 58.434 13.9697 59.1271 13.9697 59.8213C13.9697 59.8896 13.9687 59.9609 13.9668 60.0312C13.9658 60.0837 13.9347 60.1124 13.8871 60.1154C13.8279 60.1223 13.7667 60.1203 13.7065 60.1203C10.9123 60.1203 8.11902 60.1203 5.32382 60.1203C4.83432 60.1203 4.34385 60.1074 3.85726 60.048C3.28424 59.9767 2.72092 59.8698 2.18092 59.65C1.23009 59.2598 0.614329 58.5676 0.332672 57.5665C0.183103 57.0249 0.0966637 56.4704 0.09375 55.9069Z" fill="#00A0FA"/>
<path d="M64.9811 60.0501C64.9733 60.0452 64.9685 60.0393 64.9607 60.0363C62.3627 58.5054 59.7656 56.9755 57.1695 55.4457C57.1472 55.4308 57.1248 55.4209 57.1015 55.407C57.087 55.3981 57.0743 55.3862 57.0598 55.3763C57.053 55.3724 57.0442 55.3674 57.0394 55.3595C57.0355 55.3536 57.0374 55.3437 57.0316 55.2991C57.1384 55.2991 57.2326 55.3011 57.3259 55.2991C58.2719 55.2912 59.2169 55.3159 60.1619 55.2783C60.7388 55.2536 61.3118 55.2031 61.879 55.1011C62.3374 55.0199 62.7822 54.8872 63.2018 54.6753C63.9147 54.3168 64.4061 53.7564 64.6684 52.9919C64.7849 52.6493 64.8587 52.2988 64.8869 51.9393C64.9588 51.0471 64.9568 50.153 64.885 49.2608C64.8519 48.8597 64.7694 48.4637 64.6363 48.0844C64.3848 47.3645 63.9302 46.8298 63.2611 46.4832C62.9911 46.3456 62.7084 46.2416 62.418 46.1614C61.8751 46.0149 61.3205 45.9505 60.7631 45.9099C60.2056 45.8703 59.6471 45.8574 59.0877 45.8574C55.6573 45.8614 52.2279 45.8594 48.7975 45.8594C48.4236 45.8614 48.4537 45.8089 48.4537 46.2119C48.4537 50.7253 48.4537 55.2387 48.4537 59.7531C48.4537 59.8145 48.4537 59.8769 48.4537 59.9392C48.4586 60.1066 48.4673 60.1175 48.6285 60.1204C48.6887 60.1234 48.7499 60.1204 48.8101 60.1204C49.5842 60.1204 50.3573 60.1234 51.1304 60.1185C51.2644 60.1185 51.4043 60.1551 51.5325 60.0818C51.5733 59.9531 51.5519 59.8214 51.5519 59.6907C51.5539 58.2618 51.5529 56.8339 51.5539 55.4051C51.5539 55.2674 51.5461 55.1278 51.5752 54.9951C51.6471 54.9832 51.685 55.0238 51.7277 55.0506C51.8957 55.1555 52.0628 55.2635 52.2318 55.3704C54.6618 56.9102 57.0928 58.449 59.5218 59.9927C59.6656 60.0848 59.8113 60.1254 59.9822 60.1234C61.5634 60.1185 63.1455 60.1204 64.7276 60.1204C64.7956 60.1204 64.8655 60.1204 64.9335 60.1185C64.9685 60.1185 65.0015 60.1155 65.0005 60.066C64.9947 60.06 64.9869 60.0551 64.9811 60.0501ZM51.8365 52.8909C51.5539 52.8899 51.5529 52.9246 51.5529 52.6077C51.5539 51.3462 51.5529 50.0856 51.5529 48.8241C51.5529 48.7885 51.5519 48.7538 51.5539 48.7181C51.5587 48.5548 51.5675 48.5449 51.7326 48.5419C51.7763 48.5399 51.819 48.5419 51.8617 48.5419C54.3209 48.5419 56.7781 48.5419 59.2363 48.5419C59.7093 48.5419 60.1813 48.5627 60.6494 48.634C60.7941 48.6548 60.934 48.6964 61.0709 48.7508C61.3778 48.8746 61.5857 49.0954 61.6896 49.4143C61.7498 49.5975 61.7906 49.7856 61.7965 49.9787C61.812 50.4688 61.813 50.959 61.7965 51.4501C61.7906 51.6363 61.7518 51.8145 61.6974 51.9918C61.5983 52.3245 61.3827 52.5483 61.07 52.678C60.8369 52.775 60.5912 52.8196 60.3425 52.8404C59.9482 52.8751 59.5529 52.8939 59.1576 52.8929C58.031 52.8879 56.9063 52.8909 55.7797 52.8909C54.4656 52.8909 53.1506 52.8929 51.8365 52.8909Z" fill="#00A0FA"/>
</svg>
