<svg width="23" height="22" viewBox="0 0 23 22" fill="none" xmlns="http://www.w3.org/2000/svg">
<path d="M11.6867 0C13.1251 0 14.5046 0.571396 15.5217 1.58849C16.5388 2.60558 17.1102 3.98505 17.1102 5.42344C17.1102 6.86182 16.5388 8.2413 15.5217 9.25839C14.5046 10.2755 13.1251 10.8469 11.6867 10.8469C10.2483 10.8469 8.86886 10.2755 7.85177 9.25839C6.83468 8.2413 6.26328 6.86182 6.26328 5.42344C6.26328 3.98505 6.83468 2.60558 7.85177 1.58849C8.86886 0.571396 10.2483 0 11.6867 0ZM11.6867 13.5586C17.6796 13.5586 22.5336 15.9856 22.5336 18.982V21.6938H0.839844V18.982C0.839844 15.9856 5.69382 13.5586 11.6867 13.5586Z" fill="black"/>
</svg>
