<svg width="1159" height="389" viewBox="0 0 1159 389" fill="none" xmlns="http://www.w3.org/2000/svg">
<rect width="1159" height="389" rx="25" fill="#D2F1ED"/>
<mask id="mask0_474_423" style="mask-type:alpha" maskUnits="userSpaceOnUse" x="0" y="0" width="1159" height="389">
<rect width="1159" height="389" rx="25" fill="#D2F1ED"/>
</mask>
<g mask="url(#mask0_474_423)">
<path d="M-46.1197 448.939C-16.8519 442.315 477.335 378.674 1161.09 59.629" stroke="#E0FFFB" stroke-width="2"/>
<path d="M-61.4755 392.553C-31.7221 388.651 466.224 370.768 1176.44 116.014" stroke="#E0FFFB" stroke-width="2"/>
<path d="M-67.9291 359.589C-38.0109 357.268 460.184 365.774 1182.89 148.979" stroke="#E0FFFB" stroke-width="2"/>
<path d="M-73.2785 320.386C-43.2738 319.935 453.421 359.49 1188.24 188.182" stroke="#E0FFFB" stroke-width="2"/>
<path d="M-75.5261 293.335C-45.5297 294.169 449.018 354.941 1190.49 215.232" stroke="#E0FFFB" stroke-width="2"/>
<path d="M-76.7175 250.579C-46.8454 253.433 442.481 347.401 1191.69 257.988" stroke="#E0FFFB" stroke-width="2"/>
<path d="M-74.7623 204.4C-45.1773 209.422 436.006 338.778 1189.73 304.168" stroke="#E0FFFB" stroke-width="2"/>
</g>
</svg>
