<svg width="28" height="22" viewBox="0 0 28 22" fill="none" xmlns="http://www.w3.org/2000/svg">
<path fill-rule="evenodd" clip-rule="evenodd" d="M0 18.7355C0 20.3685 1.32135 21.6938 2.95429 21.6938H24.6559C26.2889 21.6938 27.6102 20.3685 27.6102 18.7355V14.7241C27.6104 14.5075 27.5393 14.2968 27.4077 14.1246C27.2762 13.9524 27.0916 13.8284 26.8825 13.7716C26.2407 13.5968 25.6742 13.2158 25.2704 12.6873C24.8665 12.1587 24.6477 11.512 24.6477 10.8469C24.6477 10.1817 24.8665 9.53501 25.2704 9.00648C25.6742 8.47795 26.2407 8.09693 26.8825 7.92216C27.0916 7.8654 27.2762 7.74134 27.4077 7.56916C27.5393 7.39699 27.6104 7.18628 27.6102 6.96961V2.95824C27.6102 1.32529 26.2889 0 24.6559 0H2.95429C1.32135 0 0 1.32529 0 2.95824V6.96172C0.00026221 7.17943 0.0725647 7.39093 0.205631 7.56324C0.338698 7.73555 0.525047 7.85898 0.735615 7.91427C1.38421 8.08388 1.95828 8.46372 2.368 8.99435C2.77771 9.52498 2.99996 10.1765 2.99996 10.8469C2.99996 11.5173 2.77771 12.1688 2.368 12.6994C1.95828 13.23 1.38421 13.6099 0.735615 13.7795C0.525047 13.8348 0.338698 13.9582 0.205631 14.1305C0.0725647 14.3028 0.00026221 14.5143 0 14.732L0 18.7355ZM9.78585 16.649L19.6466 6.78817C19.8667 6.55501 19.9873 6.24526 19.9827 5.92468C19.9782 5.60409 19.8489 5.29788 19.6223 5.07104C19.3957 4.8442 19.0897 4.71458 18.7691 4.70967C18.4485 4.70477 18.1386 4.82498 17.9052 5.04478L8.04444 14.9056C7.92437 15.0186 7.82822 15.1547 7.76167 15.3056C7.69512 15.4565 7.65953 15.6192 7.65701 15.7841C7.65449 15.949 7.68508 16.1127 7.74699 16.2656C7.80889 16.4184 7.90084 16.5573 8.01739 16.674C8.13394 16.7907 8.27273 16.8828 8.42552 16.9449C8.57831 17.007 8.74201 17.0377 8.90692 17.0354C9.07182 17.0331 9.23458 16.9977 9.38556 16.9313C9.53653 16.8649 9.67265 16.7689 9.78585 16.649ZM7.93005 6.90256C7.93005 6.37951 8.13783 5.87788 8.50768 5.50803C8.87753 5.13818 9.37916 4.9304 9.90221 4.9304C10.4253 4.9304 10.9269 5.13818 11.2967 5.50803C11.6666 5.87788 11.8744 6.37951 11.8744 6.90256C11.8744 7.42561 11.6666 7.92723 11.2967 8.29708C10.9269 8.66693 10.4253 8.87472 9.90221 8.87472C9.37916 8.87472 8.87753 8.66693 8.50768 8.29708C8.13783 7.92723 7.93005 7.42561 7.93005 6.90256ZM15.8187 14.7912C15.8187 14.2681 16.0265 13.7665 16.3963 13.3967C16.7662 13.0268 17.2678 12.819 17.7908 12.819C18.3139 12.819 18.8155 13.0268 19.1854 13.3967C19.5552 13.7665 19.763 14.2681 19.763 14.7912C19.763 15.3142 19.5552 15.8159 19.1854 16.1857C18.8155 16.5556 18.3139 16.7634 17.7908 16.7634C17.2678 16.7634 16.7662 16.5556 16.3963 16.1857C16.0265 15.8159 15.8187 15.3142 15.8187 14.7912Z" fill="black"/>
</svg>
